<svg width="32" height="32" viewBox="0 0 32 32" fill="none" xmlns="http://www.w3.org/2000/svg">
<path d="M16 22V16" stroke="#1E1E1E" stroke-width="1.5" stroke-linecap="round" stroke-linejoin="round"/>
<path d="M12.5 12L16 16L19.5 12" stroke="#1E1E1E" stroke-width="1.5" stroke-linecap="round" stroke-linejoin="round"/>
<path d="M7.91897 15.7966C8.51722 17.0279 9.384 18.1063 10.4542 18.9505C10.7789 19.2059 11.0419 19.5326 11.2231 19.9058C11.4042 20.2791 11.4989 20.6891 11.5 21.1048L11.5 21.7901C11.5 22.0312 11.5948 22.2625 11.7636 22.433C11.9324 22.6034 12.1613 22.6992 12.4 22.6992H19.6C19.8387 22.6992 20.0676 22.6034 20.2364 22.433C20.4052 22.2625 20.5 22.0312 20.5 21.7901L20.5 21.1056C20.5025 20.6872 20.5991 20.2748 20.7825 19.8997C20.966 19.5245 21.2315 19.1964 21.5589 18.9401C23.0456 17.7607 24.1269 16.1384 24.6494 14.3033C25.1719 12.4682 25.1091 10.5135 24.4699 8.71646C23.8307 6.91944 22.6475 5.37134 21.0883 4.29175C19.529 3.21216 17.6728 2.65589 15.783 2.70185C8.68987 3.10396 6.97229 8.96247 7.00014 11.8415C7.00658 13.213 7.32073 14.5653 7.91897 15.7966Z" stroke="#1E1E1E" stroke-width="1.5" stroke-linecap="round" stroke-linejoin="round"/>
<path d="M12 22.8008L12 28.3008C12 28.5769 12.2239 28.8008 12.5 28.8008H19.5C19.7761 28.8008 20 28.5769 20 28.3008V22.8008" stroke="#1E1E1E" stroke-width="1.5" stroke-miterlimit="10" stroke-linecap="round" stroke-linejoin="round"/>
<path d="M12 26H17" stroke="#1E1E1E" stroke-width="1.5" stroke-linecap="round"/>
</svg>
