<svg width="32" height="32" viewBox="0 0 32 32" fill="none" xmlns="http://www.w3.org/2000/svg">
<path d="M10.2631 10.4258L14.2368 14.4436M18.5 21.0008C20.5059 23.2265 22.1847 25.3308 23.1413 26.5681C23.565 27.1162 24.4079 27.0948 24.7947 26.5201L26.8889 23.4087C27.2171 22.9211 27.0599 22.253 26.5599 21.944C25.3842 21.2174 23.2647 19.8109 21.1245 17.9091M10.5924 7.64038L11.8451 8.16815C11.9755 8.22311 12.0092 8.39246 11.9097 8.4931L8.35602 12.0863C8.25534 12.1881 8.08345 12.1542 8.0289 12.0218L7.50838 10.7587C7.05125 9.64937 6.44257 8.61034 5.70009 7.67193L4.80987 6.54677C4.74715 6.46751 4.75344 6.35391 4.82451 6.28204L6.16221 4.92946C6.23446 4.85641 6.35031 4.84999 6.43019 4.9146L7.53958 5.81198C8.46767 6.56271 9.49527 7.17816 10.5924 7.64038ZM21.6543 15.5151C21.0208 15.5151 20.4133 15.4027 19.8502 15.1964L19.0052 16.0508L17.9456 17.1222L15.8263 19.2651L8.70664 26.7572C8.31932 27.1648 7.67222 27.173 7.27464 26.7754L5.21317 24.7139C4.82028 24.3211 4.82301 23.6832 5.21923 23.2937L14.7666 13.9079L16.6712 11.9822C16.4673 11.4128 16.3561 10.7985 16.3561 10.1579C16.3561 7.19926 18.7282 4.80078 21.6543 4.80078C22.3144 4.80078 22.9463 4.92284 23.5292 5.14586C23.6531 5.19326 23.6896 5.34802 23.605 5.45019L20.9566 8.64937C20.7227 8.9319 20.5947 9.28719 20.5947 9.65397V9.77712C20.5947 10.5792 21.2449 11.2294 22.0469 11.2294V11.2294C22.4703 11.2294 22.8727 11.0445 23.1486 10.7233L26.0736 7.31761C26.1482 7.23077 26.2808 7.22365 26.3563 7.3097C27.6188 8.74866 27.5203 12.0481 25.681 13.9079C23.7736 15.8365 21.6543 15.5151 21.6543 15.5151Z" stroke="#1E1E1E" stroke-width="1.5" stroke-linecap="round"/>
</svg>
