<svg width="116" height="22" viewBox="0 0 116 22" fill="none" xmlns="http://www.w3.org/2000/svg">
<path d="M8.74432 8.18182C8.66761 7.53409 8.35653 7.03125 7.81108 6.6733C7.26563 6.31534 6.59659 6.13636 5.80398 6.13636C5.22443 6.13636 4.71733 6.23011 4.28267 6.41761C3.85227 6.60511 3.51563 6.86293 3.27273 7.19105C3.03409 7.51918 2.91477 7.89204 2.91477 8.30966C2.91477 8.65909 2.99787 8.95952 3.16406 9.21094C3.33452 9.4581 3.55185 9.66477 3.81605 9.83097C4.08026 9.9929 4.35724 10.1271 4.64702 10.2337C4.93679 10.3359 5.20312 10.419 5.44602 10.483L6.77557 10.8409C7.11648 10.9304 7.49574 11.054 7.91335 11.2116C8.33523 11.3693 8.73793 11.5845 9.12145 11.8572C9.50923 12.1257 9.82884 12.4709 10.0803 12.8928C10.3317 13.3146 10.4574 13.8324 10.4574 14.446C10.4574 15.1534 10.272 15.7926 9.90128 16.3636C9.5348 16.9347 8.99787 17.3885 8.29048 17.7251C7.58736 18.0618 6.73295 18.2301 5.72727 18.2301C4.78977 18.2301 3.97798 18.0788 3.2919 17.7763C2.61009 17.4737 2.07315 17.0518 1.68111 16.5107C1.29332 15.9695 1.07386 15.3409 1.02273 14.625H2.65909C2.7017 15.1193 2.8679 15.5284 3.15767 15.8523C3.4517 16.1719 3.82244 16.4105 4.26989 16.5682C4.72159 16.7216 5.20739 16.7983 5.72727 16.7983C6.33239 16.7983 6.87571 16.7003 7.35724 16.5043C7.83878 16.304 8.22017 16.027 8.50142 15.6733C8.78267 15.3153 8.9233 14.8977 8.9233 14.4205C8.9233 13.9858 8.80185 13.6321 8.55895 13.3594C8.31605 13.0866 7.99645 12.8651 7.60014 12.6946C7.20384 12.5241 6.77557 12.375 6.31534 12.2472L4.70455 11.7869C3.68182 11.4929 2.87216 11.0732 2.27557 10.5277C1.67898 9.98224 1.38068 9.26847 1.38068 8.38636C1.38068 7.65341 1.57884 7.0142 1.97514 6.46875C2.37571 5.91903 2.91264 5.4929 3.58594 5.19034C4.26349 4.88352 5.01989 4.73011 5.85511 4.73011C6.69886 4.73011 7.44886 4.88139 8.10511 5.18395C8.76136 5.48224 9.28125 5.89133 9.66477 6.41122C10.0526 6.93111 10.2571 7.52131 10.2784 8.18182H8.74432ZM16.9757 18.2045C16.0297 18.2045 15.2136 17.9957 14.5275 17.5781C13.8457 17.1562 13.3194 16.5682 12.9487 15.8139C12.5822 15.0554 12.399 14.1733 12.399 13.1676C12.399 12.1619 12.5822 11.2756 12.9487 10.5085C13.3194 9.73722 13.835 9.13636 14.4956 8.70597C15.1603 8.27131 15.9359 8.05398 16.8223 8.05398C17.3336 8.05398 17.8386 8.1392 18.3372 8.30966C18.8358 8.48011 19.2896 8.7571 19.6987 9.14062C20.1078 9.51989 20.4338 10.0227 20.6767 10.6491C20.9196 11.2756 21.041 12.0469 21.041 12.9631V13.6023H13.4728V12.2983H19.5069C19.5069 11.7443 19.3961 11.25 19.1745 10.8153C18.9572 10.3807 18.6461 10.0376 18.2413 9.78622C17.8407 9.5348 17.3677 9.40909 16.8223 9.40909C16.2214 9.40909 15.7015 9.55824 15.2626 9.85653C14.8279 10.1506 14.4934 10.5341 14.2591 11.0071C14.0247 11.4801 13.9075 11.9872 13.9075 12.5284V13.3977C13.9075 14.1392 14.0353 14.7678 14.291 15.2834C14.551 15.7947 14.911 16.1847 15.3713 16.4531C15.8315 16.7173 16.3663 16.8494 16.9757 16.8494C17.372 16.8494 17.7299 16.794 18.0495 16.6832C18.3734 16.5682 18.6525 16.3977 18.8869 16.1719C19.1213 15.9418 19.3024 15.6562 19.4302 15.3153L20.8876 15.7244C20.7342 16.2188 20.4764 16.6534 20.1142 17.0284C19.752 17.3991 19.3045 17.6889 18.7718 17.8977C18.2392 18.1023 17.6404 18.2045 16.9757 18.2045ZM26.225 18.2301C25.6028 18.2301 25.0382 18.1129 24.5311 17.8786C24.024 17.6399 23.6213 17.2969 23.323 16.8494C23.0247 16.3977 22.8755 15.8523 22.8755 15.2131C22.8755 14.6506 22.9863 14.1946 23.2079 13.8452C23.4295 13.4915 23.7257 13.2145 24.0964 13.0142C24.4672 12.8139 24.8762 12.6648 25.3237 12.5668C25.7754 12.4645 26.2292 12.3835 26.6852 12.3239C27.2818 12.2472 27.7654 12.1896 28.1362 12.1513C28.5112 12.1087 28.7839 12.0384 28.9544 11.9403C29.1291 11.8423 29.2164 11.6719 29.2164 11.429V11.3778C29.2164 10.7472 29.0439 10.2571 28.6987 9.90767C28.3578 9.55824 27.84 9.38352 27.1454 9.38352C26.4252 9.38352 25.8606 9.54119 25.4515 9.85653C25.0424 10.1719 24.7548 10.5085 24.5886 10.8665L23.1568 10.3551C23.4125 9.75852 23.7534 9.29403 24.1795 8.96165C24.6099 8.625 25.0787 8.39062 25.5858 8.25852C26.0971 8.12216 26.6 8.05398 27.0943 8.05398C27.4096 8.05398 27.7718 8.09233 28.1809 8.16903C28.5943 8.24148 28.9927 8.39276 29.3762 8.62287C29.764 8.85298 30.0858 9.20028 30.3414 9.66477C30.5971 10.1293 30.725 10.7514 30.725 11.5312V18H29.2164V16.6705H29.1397C29.0375 16.8835 28.867 17.1115 28.6284 17.3544C28.3897 17.5973 28.0723 17.804 27.676 17.9744C27.2797 18.1449 26.796 18.2301 26.225 18.2301ZM26.4551 16.875C27.0517 16.875 27.5545 16.7578 27.9636 16.5234C28.377 16.2891 28.688 15.9865 28.8968 15.6158C29.1099 15.245 29.2164 14.8551 29.2164 14.446V13.0653C29.1525 13.142 29.0119 13.2124 28.7946 13.2763C28.5815 13.3359 28.3343 13.3892 28.0531 13.4361C27.7761 13.4787 27.5055 13.517 27.2413 13.5511C26.9814 13.581 26.7704 13.6065 26.6085 13.6278C26.2164 13.679 25.85 13.7621 25.5091 13.8771C25.1724 13.9879 24.8997 14.1562 24.6909 14.3821C24.4863 14.6037 24.3841 14.9062 24.3841 15.2898C24.3841 15.8139 24.5779 16.2102 24.9657 16.4787C25.3578 16.7429 25.8542 16.875 26.4551 16.875ZM34.9869 12.0938V18H33.4783V8.18182H34.9357V9.71591H35.0636C35.2937 9.21733 35.6431 8.81676 36.1119 8.5142C36.5806 8.20739 37.1857 8.05398 37.9272 8.05398C38.592 8.05398 39.1737 8.19034 39.6722 8.46307C40.1708 8.73153 40.5586 9.14062 40.8356 9.69034C41.1126 10.2358 41.2511 10.9261 41.2511 11.7614V18H39.7425V11.8636C39.7425 11.0923 39.5423 10.4915 39.1417 10.0611C38.7411 9.62642 38.1914 9.40909 37.4925 9.40909C37.011 9.40909 36.5806 9.51349 36.2013 9.7223C35.8263 9.93111 35.5302 10.2358 35.3129 10.6364C35.0955 11.0369 34.9869 11.5227 34.9869 12.0938ZM51.5758 12.2727L51.6781 9.46023L49.3002 10.9688L48.6866 9.89489L51.1923 8.59091L48.6866 7.28693L49.3002 6.21307L51.6781 7.72159L51.5758 4.90909H52.8031L52.7008 7.72159L55.0787 6.21307L55.6923 7.28693L53.1866 8.59091L55.6923 9.89489L55.0787 10.9688L52.7008 9.46023L52.8031 12.2727H51.5758ZM62.3145 18H58.2747V4.90909H62.4934C63.7633 4.90909 64.85 5.17116 65.7534 5.69531C66.6568 6.2152 67.3493 6.96307 67.8308 7.93892C68.3123 8.91051 68.5531 10.0739 68.5531 11.429C68.5531 12.7926 68.3102 13.9666 67.8244 14.951C67.3386 15.9311 66.6312 16.6854 65.7022 17.2138C64.7733 17.7379 63.644 18 62.3145 18ZM59.8599 16.5938H62.2122C63.2946 16.5938 64.1916 16.3849 64.9032 15.9673C65.6149 15.5497 66.1454 14.9553 66.4949 14.1839C66.8443 13.4126 67.019 12.4943 67.019 11.429C67.019 10.3722 66.8464 9.46236 66.5012 8.69957C66.1561 7.93253 65.6404 7.34446 64.9544 6.93537C64.2683 6.52202 63.4139 6.31534 62.3912 6.31534H59.8599V16.5938ZM75.1241 18.2045C74.1781 18.2045 73.362 17.9957 72.676 17.5781C71.9941 17.1562 71.4679 16.5682 71.0971 15.8139C70.7306 15.0554 70.5474 14.1733 70.5474 13.1676C70.5474 12.1619 70.7306 11.2756 71.0971 10.5085C71.4679 9.73722 71.9835 9.13636 72.644 8.70597C73.3088 8.27131 74.0843 8.05398 74.9707 8.05398C75.4821 8.05398 75.987 8.1392 76.4856 8.30966C76.9842 8.48011 77.438 8.7571 77.8471 9.14062C78.2562 9.51989 78.5822 10.0227 78.8251 10.6491C79.068 11.2756 79.1895 12.0469 79.1895 12.9631V13.6023H71.6213V12.2983H77.6554C77.6554 11.7443 77.5446 11.25 77.323 10.8153C77.1056 10.3807 76.7946 10.0376 76.3897 9.78622C75.9892 9.5348 75.5162 9.40909 74.9707 9.40909C74.3699 9.40909 73.85 9.55824 73.411 9.85653C72.9764 10.1506 72.6419 10.5341 72.4075 11.0071C72.1731 11.4801 72.0559 11.9872 72.0559 12.5284V13.3977C72.0559 14.1392 72.1838 14.7678 72.4395 15.2834C72.6994 15.7947 73.0595 16.1847 73.5197 16.4531C73.9799 16.7173 74.5147 16.8494 75.1241 16.8494C75.5204 16.8494 75.8784 16.794 76.198 16.6832C76.5218 16.5682 76.801 16.3977 77.0353 16.1719C77.2697 15.9418 77.4508 15.6562 77.5787 15.3153L79.036 15.7244C78.8826 16.2188 78.6248 16.6534 78.2626 17.0284C77.9004 17.3991 77.4529 17.6889 76.9203 17.8977C76.3876 18.1023 75.7889 18.2045 75.1241 18.2045ZM88.4387 10.3807L87.0836 10.7642C86.9984 10.5384 86.8727 10.3189 86.7065 10.1058C86.5446 9.88849 86.323 9.70952 86.0417 9.56889C85.7605 9.42827 85.4004 9.35795 84.9615 9.35795C84.3606 9.35795 83.8599 9.49645 83.4593 9.77344C83.063 10.0462 82.8649 10.3935 82.8649 10.8153C82.8649 11.1903 83.0012 11.4865 83.274 11.7038C83.5467 11.9212 83.9728 12.1023 84.5524 12.2472L86.0098 12.6051C86.8876 12.8182 87.5417 13.1442 87.9721 13.5831C88.4025 14.0178 88.6177 14.5781 88.6177 15.2642C88.6177 15.8267 88.4558 16.3295 88.1319 16.7727C87.8123 17.2159 87.3649 17.5653 86.7896 17.821C86.2143 18.0767 85.5453 18.2045 84.7825 18.2045C83.7811 18.2045 82.9522 17.9872 82.296 17.5526C81.6397 17.1179 81.2243 16.483 81.0495 15.6477L82.4814 15.2898C82.6177 15.8182 82.8755 16.2145 83.2548 16.4787C83.6383 16.7429 84.139 16.875 84.7569 16.875C85.4601 16.875 86.0183 16.7259 86.4316 16.4276C86.8493 16.125 87.0581 15.7628 87.0581 15.3409C87.0581 15 86.9387 14.7145 86.7001 14.4844C86.4615 14.25 86.095 14.0753 85.6007 13.9602L83.9643 13.5767C83.0652 13.3636 82.4047 13.0334 81.9828 12.5859C81.5652 12.1342 81.3564 11.5696 81.3564 10.892C81.3564 10.3381 81.5119 9.84801 81.823 9.42188C82.1383 8.99574 82.5666 8.66122 83.1078 8.41832C83.6532 8.17543 84.2711 8.05398 84.9615 8.05398C85.9331 8.05398 86.6958 8.26705 87.2498 8.69318C87.8081 9.11932 88.2044 9.68182 88.4387 10.3807ZM90.8885 18V8.18182H92.397V18H90.8885ZM91.6555 6.54545C91.3615 6.54545 91.108 6.44531 90.8949 6.24503C90.6861 6.04474 90.5817 5.80398 90.5817 5.52273C90.5817 5.24148 90.6861 5.00071 90.8949 4.80043C91.108 4.60014 91.3615 4.5 91.6555 4.5C91.9496 4.5 92.201 4.60014 92.4098 4.80043C92.6229 5.00071 92.7294 5.24148 92.7294 5.52273C92.7294 5.80398 92.6229 6.04474 92.4098 6.24503C92.201 6.44531 91.9496 6.54545 91.6555 6.54545ZM99.123 21.8864C98.3944 21.8864 97.7679 21.7926 97.2438 21.6051C96.7196 21.4219 96.2828 21.179 95.9334 20.8764C95.5882 20.5781 95.3134 20.2585 95.1088 19.9176L96.3105 19.0739C96.4469 19.2528 96.6195 19.4574 96.8283 19.6875C97.0371 19.9219 97.3226 20.1243 97.6848 20.2947C98.0513 20.4695 98.5307 20.5568 99.123 20.5568C99.9157 20.5568 100.57 20.3651 101.085 19.9815C101.601 19.598 101.859 18.9972 101.859 18.179V16.1847H101.731C101.62 16.3636 101.463 16.5852 101.258 16.8494C101.058 17.1094 100.768 17.3416 100.389 17.5462C100.014 17.7464 99.5066 17.8466 98.8674 17.8466C98.0748 17.8466 97.3631 17.6591 96.7324 17.2841C96.106 16.9091 95.6096 16.3636 95.2431 15.6477C94.8809 14.9318 94.6998 14.0625 94.6998 13.0398C94.6998 12.0341 94.8766 11.1584 95.2303 10.4126C95.584 9.66264 96.0762 9.0831 96.7069 8.67401C97.3375 8.26065 98.0662 8.05398 98.8929 8.05398C99.5321 8.05398 100.039 8.16051 100.414 8.37358C100.794 8.58239 101.083 8.82102 101.284 9.08949C101.488 9.35369 101.646 9.57102 101.757 9.74148H101.91V8.18182H103.367V18.2812C103.367 19.125 103.176 19.8111 102.792 20.3395C102.413 20.8722 101.901 21.2621 101.258 21.5092C100.619 21.7607 99.9071 21.8864 99.123 21.8864ZM99.0719 16.4915C99.677 16.4915 100.188 16.353 100.606 16.076C101.024 15.799 101.341 15.4006 101.558 14.8807C101.776 14.3608 101.884 13.7386 101.884 13.0142C101.884 12.3068 101.778 11.6825 101.565 11.1413C101.352 10.6001 101.036 10.1761 100.619 9.86932C100.201 9.5625 99.6855 9.40909 99.0719 9.40909C98.4327 9.40909 97.9 9.57102 97.4739 9.89489C97.052 10.2187 96.7346 10.6534 96.5215 11.1989C96.3127 11.7443 96.2083 12.3494 96.2083 13.0142C96.2083 13.696 96.3148 14.299 96.5279 14.8232C96.7452 15.343 97.0648 15.7521 97.4867 16.0504C97.9128 16.3445 98.4412 16.4915 99.0719 16.4915ZM107.637 12.0938V18H106.129V8.18182H107.586V9.71591H107.714C107.944 9.21733 108.294 8.81676 108.762 8.5142C109.231 8.20739 109.836 8.05398 110.578 8.05398C111.242 8.05398 111.824 8.19034 112.323 8.46307C112.821 8.73153 113.209 9.14062 113.486 9.69034C113.763 10.2358 113.901 10.9261 113.901 11.7614V18H112.393V11.8636C112.393 11.0923 112.193 10.4915 111.792 10.0611C111.392 9.62642 110.842 9.40909 110.143 9.40909C109.661 9.40909 109.231 9.51349 108.852 9.7223C108.477 9.93111 108.181 10.2358 107.963 10.6364C107.746 11.0369 107.637 11.5227 107.637 12.0938Z" fill="black"/>
</svg>
